<svg width="20" height="20" viewBox="0 0 20 20" fill="none" xmlns="http://www.w3.org/2000/svg">
<path d="M19.4675 5.23198C19.3152 3.97533 18.8316 2.9117 18.0383 2.05759C17.2458 1.20449 16.2682 0.693152 15.1278 0.534012C14.8704 0.499791 14.2611 0.499613 13.9958 0.534182C12.9587 0.67614 12.0475 1.12166 11.2776 1.86772C11.0061 2.131 10.6969 2.51129 10.5187 2.79804C10.4928 2.84 10.4666 2.88066 10.4446 2.91305C10.4342 2.92827 10.4212 2.94711 10.4076 2.96484C10.402 2.97231 10.389 2.98907 10.3721 3.00757C10.3648 3.01553 10.3457 3.0361 10.3184 3.0585C10.3051 3.06942 10.2784 3.09036 10.2411 3.11085C10.2136 3.12594 10.1247 3.17272 9.99994 3.17272C9.87509 3.17272 9.78627 3.12594 9.75879 3.11085C9.72146 3.09036 9.69473 3.06942 9.68142 3.0585C9.65413 3.0361 9.63502 3.01553 9.62773 3.00757C9.61079 2.98907 9.59788 2.97231 9.59219 2.96484C9.57868 2.94711 9.56559 2.92827 9.55525 2.91305C9.53326 2.88066 9.50708 2.84 9.4811 2.79804C9.30304 2.51124 8.99395 2.13115 8.72223 1.86772C7.96556 1.13447 7 0.534012 6 0.534012L4.85868 0.539782C2.77559 0.799521 1.02736 2.50583 0.599216 4.78491C0.408124 5.80575 0.501729 7.14776 0.852536 8.28419C1.22032 9.46706 1.83862 10.5134 2.93265 11.7549C3.45041 12.3416 3.89148 12.7817 5.38272 14.1952C5.74051 14.5337 6.14461 14.9179 6.27882 15.0499C6.27882 15.0499 7.68441 16.4986 8.5 17.5C9.11655 18.257 10 19.5 10 19.5C11 18 13.4744 15.1822 13.4744 15.1822C13.4744 15.1822 14.1213 14.5456 15.0868 13.622C16.5751 12.1941 17.3127 11.3933 17.9043 10.578C18.86 9.25774 19.3327 8.03313 19.4739 6.53112M19.4675 5.23198C19.4969 5.4772 19.5009 6.2289 19.4739 6.53112M19.4675 5.23198L19.4739 6.53112" stroke="black"/>
</svg>
